# xmcd
#
# Track frame offsets:
#	150
#	7633
#	13771
#	23794
#	29809
#	41244
#	50147
#	57180
#	68105
#	76825
#	86783
#
# Disc length: 1246 seconds
#
# Revision: 1
# Processed by: cddbd v1.5.2PL0 Copyright (c) Steve Scherf et al.
# Submitted via: audiograbber 1.83.01
#
DISCID=8904dc0b
DTITLE=Marteka and William - True Grass Revival
DYEAR=2013
DGENRE=Bluegrass
TTITLE0=Foggy Mnt. Special
TTITLE1=Shuckin the Corn
TTITLE2=Salty Dog Blues
TTITLE3=Ground Speed
TTITLE4=Petticoat Junction
TTITLE5=Wildwood Flower
TTITLE6=Foggy Mnt. Breakdown
TTITLE7=Six White Horses
TTITLE8=Nashville Blues
TTITLE9=Sittin On Top of the World
TTITLE10=Old Joe Clark
EXTD=
EXTT0=
EXTT1=
EXTT2=
EXTT3=
EXTT4=
EXTT5=
EXTT6=
EXTT7=
EXTT8=
EXTT9=
EXTT10=
PLAYORDER=
